<svg width="24" height="24" viewBox="0 0 24 24" fill="none" xmlns="http://www.w3.org/2000/svg">
<g clip-path="url(#clip0)">
<path d="M9.04684 13.4101L2.18211 20.2748L2.18182 16.3631C2.18182 15.7607 1.69331 15.2723 1.09084 15.2723C0.488364 15.2723 0 15.7608 0 16.3633L0.000436364 22.9087C0.000436364 23.5112 0.488873 23.9996 1.09135 23.9996H7.63636C8.23884 23.9996 8.72727 23.5111 8.72727 22.9087C8.72727 22.3062 8.23884 21.8178 7.63636 21.8178H3.72473L10.5896 14.9529C11.0156 14.5268 11.0156 13.8361 10.5896 13.4101C10.1636 12.9841 9.4728 12.9841 9.04684 13.4101Z" fill="white"/>
<path d="M14.1818 10.9089C14.461 10.9089 14.7402 10.8024 14.9532 10.5893L21.8179 3.72458L21.8182 7.63644C21.8183 8.23891 22.3067 8.72735 22.9092 8.72727C23.5116 8.7272 24.0001 8.23876 24 7.63629L23.9996 1.09084C23.9995 0.488364 23.5111 0 22.9087 0H16.3636C15.7612 0 15.2727 0.488436 15.2727 1.09091C15.2727 1.69338 15.7612 2.18182 16.3636 2.18182H20.2752L13.4104 9.04662C12.9844 9.47266 12.9844 10.1633 13.4104 10.5894C13.6234 10.8024 13.9026 10.9089 14.1818 10.9089Z" fill="white"/>
</g>
<defs>
<clipPath id="clip0">
<rect width="24" height="24" fill="white"/>
</clipPath>
</defs>
</svg>
